<?xml version="1.0" encoding="iso-8859-1"?>
<!-- Generator: Adobe Illustrator 19.0.0, SVG Export Plug-In . SVG Version: 6.00 Build 0)  -->
<svg xmlns="http://www.w3.org/2000/svg" xmlns:xlink="http://www.w3.org/1999/xlink" version="1.1" id="Capa_1" x="0px" y="0px" viewBox="0 0 512.001 512.001" style="enable-background:new 0 0 512.001 512.001;" xml:space="preserve" width="512px" height="512px">
<g>
	<g>
		<path d="M336.748,128.464c-0.907-3.493-3.667-14.122-31.31-23.981c-9.077-3.238-27.57-8.669-49.437-8.669    s-40.359,5.431-49.437,8.669c-27.644,9.859-30.403,20.488-31.311,23.981c-0.319,1.231-0.481,2.498-0.481,3.77v53.74    c0,8.284,6.716,15,15,15h132.457c8.284,0,15-6.716,15-15v-53.74C337.229,130.961,337.067,129.694,336.748,128.464z" fill="#FFFFFF"/>
	</g>
</g>
<g>
	<g>
		<path d="M264.386,10.88h-16.771c-13.018,0-23.571,10.553-23.571,23.57v27.648c0,13.018,10.553,23.57,23.571,23.57h16.771    c13.018,0,23.57-10.553,23.57-23.57V34.449C287.956,21.432,277.403,10.88,264.386,10.88z" fill="#FFFFFF"/>
	</g>
</g>
<g>
	<g>
		<path d="M336.748,428.612c-0.907-3.492-3.667-14.12-31.31-23.98c-9.077-3.238-27.57-8.669-49.437-8.669    s-40.359,5.431-49.437,8.669c-27.644,9.859-30.403,20.487-31.311,23.98c-0.319,1.231-0.481,2.498-0.481,3.77v53.74    c0,8.284,6.716,15,15,15h132.457c8.284,0,15-6.716,15-15v-53.74C337.229,431.109,337.067,429.842,336.748,428.612z" fill="#FFFFFF"/>
	</g>
</g>
<g>
	<g>
		<path d="M264.386,311.028h-16.771c-13.018,0-23.571,10.553-23.571,23.57v27.648c0,13.018,10.553,23.57,23.571,23.57h16.771    c13.018,0,23.57-10.553,23.57-23.57v-27.648C287.956,321.58,277.403,311.028,264.386,311.028z" fill="#FFFFFF"/>
	</g>
</g>
<g>
	<g>
		<path d="M162.114,366.821c-0.907-3.493-3.67-14.122-31.337-23.979c-9.085-3.237-27.594-8.667-49.479-8.667    s-40.394,5.43-49.479,8.667c-27.667,9.857-30.43,20.486-31.337,23.979c-0.32,1.232-0.482,2.5-0.482,3.773v53.74    c0,8.284,6.716,15,15,15h132.596c8.284,0,15-6.716,15-15v-53.74C162.596,369.321,162.434,368.054,162.114,366.821z" fill="#FFFFFF"/>
	</g>
</g>
<g>
	<g>
		<path d="M89.718,249.241H72.879c-13.018,0-23.571,10.553-23.571,23.57v27.648c0.001,13.018,10.554,23.57,23.571,23.57h16.839    c13.018,0,23.571-10.553,23.571-23.57v-27.648C113.289,259.793,102.736,249.241,89.718,249.241z" fill="#FFFFFF"/>
	</g>
</g>
<g>
	<g>
		<path d="M511.519,366.821c-0.907-3.493-3.67-14.122-31.337-23.979c-9.085-3.237-27.594-8.667-49.479-8.667    s-40.394,5.43-49.479,8.667c-27.667,9.857-30.43,20.486-31.337,23.979c-0.32,1.232-0.482,2.5-0.482,3.773v53.74    c0,8.284,6.716,15,15,15h132.596c8.284,0,15-6.716,15-15v-53.74C512.001,369.321,511.839,368.053,511.519,366.821z" fill="#FFFFFF"/>
	</g>
</g>
<g>
	<g>
		<path d="M439.122,249.241h-16.839c-13.017,0-23.57,10.552-23.57,23.57v27.648c0,13.018,10.553,23.57,23.57,23.57h16.839    c13.018,0,23.57-10.553,23.57-23.57v-27.648C462.692,259.793,452.139,249.241,439.122,249.241z" fill="#FFFFFF"/>
	</g>
</g>
<g>
	<g>
		<path d="M256.001,215.268c-8.284,0-15,6.716-15,15v39.763c0,8.284,6.716,15,15,15s15-6.716,15-15v-39.763    C271.001,221.984,264.285,215.268,256.001,215.268z" fill="#FFFFFF"/>
	</g>
</g>
<g>
	<g>
		<path d="M150.928,179.018c-3.84-7.339-12.903-10.176-20.244-6.337l-38.78,20.289c-7.341,3.84-10.178,12.904-6.338,20.245    c2.679,5.12,7.9,8.049,13.304,8.049c2.343,0,4.721-0.551,6.94-1.712l38.78-20.289    C151.931,195.423,154.768,186.359,150.928,179.018z" fill="#FFFFFF"/>
	</g>
</g>
<g>
	<g>
		<path d="M420.097,192.971l-38.78-20.289c-7.337-3.84-16.403-1.003-20.244,6.337c-3.84,7.341-1.003,16.405,6.338,20.245    l38.78,20.289c2.22,1.162,4.597,1.712,6.94,1.712c5.404,0,10.625-2.929,13.304-8.049    C430.275,205.875,427.438,196.811,420.097,192.971z" fill="#FFFFFF"/>
	</g>
</g>
<g>
</g>
<g>
</g>
<g>
</g>
<g>
</g>
<g>
</g>
<g>
</g>
<g>
</g>
<g>
</g>
<g>
</g>
<g>
</g>
<g>
</g>
<g>
</g>
<g>
</g>
<g>
</g>
<g>
</g>
</svg>
