<?xml version="1.0"?>
<svg xmlns="http://www.w3.org/2000/svg" height="512px" version="1.1" viewBox="1 1 598.7 598.7" width="512px">
<g id="surface1">
<path d="M 395.628906 258.859375 C 399.335938 260.339844 403.570312 259.464844 406.390625 256.640625 C 441.855469 221.332031 491.957031 204.925781 541.4375 212.425781 L 587.5 219.515625 C 592.949219 220.351562 598.042969 216.609375 598.878906 211.160156 C 599.484375 207.207031 597.675781 203.273438 594.277344 201.164062 L 309.484375 24.398438 L 309.484375 0 L 289.515625 0 L 289.515625 24.398438 L 4.722656 201.164062 C 0.0390625 204.074219 -1.402344 210.226562 1.507812 214.914062 C 3.617188 218.308594 7.546875 220.121094 11.5 219.511719 L 57.5625 212.425781 C 107.042969 204.929688 157.144531 221.332031 192.609375 256.640625 C 195.429688 259.464844 199.664062 260.335938 203.371094 258.855469 C 224.59375 250.375 246.847656 244.730469 269.550781 242.074219 L 269.550781 539.097656 L 239.601562 539.097656 C 223.058594 539.097656 209.652344 552.507812 209.652344 569.050781 C 209.652344 585.589844 223.058594 599 239.601562 599 L 359.402344 599 C 375.941406 599 389.351562 585.589844 389.351562 569.050781 C 389.351562 552.507812 375.941406 539.097656 359.402344 539.097656 L 329.449219 539.097656 L 329.449219 242.074219 C 352.152344 244.730469 374.40625 250.375 395.628906 258.859375 Z M 380.65625 232.703125 C 327.792969 216.144531 271.128906 216.144531 218.265625 232.703125 L 299.5 54.078125 Z M 402.699219 232.941406 L 322.210938 55.796875 L 542.234375 192.367188 C 492.082031 185.425781 441.34375 200.179688 402.738281 232.941406 Z M 56.765625 192.367188 L 276.789062 55.796875 L 196.261719 232.941406 C 157.65625 200.179688 106.917969 185.425781 56.765625 192.367188 Z M 369.382812 569.050781 C 369.382812 574.5625 364.914062 579.03125 359.402344 579.03125 L 239.601562 579.03125 C 234.085938 579.03125 229.617188 574.5625 229.617188 569.050781 C 229.617188 563.535156 234.085938 559.066406 239.601562 559.066406 L 359.402344 559.066406 C 364.914062 559.066406 369.382812 563.535156 369.382812 569.050781 Z M 309.484375 539.101562 L 289.515625 539.101562 L 289.515625 240.488281 C 296.171875 240.230469 302.828125 240.230469 309.484375 240.488281 Z M 309.484375 539.101562 " style=" fill-rule:nonzero;fill-opacity:1;" stroke="#8952be" fill="#8952be"/>
<path d="M 189.683594 479.199219 L 159.734375 479.199219 L 159.734375 399.332031 C 159.734375 393.820312 155.265625 389.351562 149.75 389.351562 L 49.917969 389.351562 C 44.402344 389.351562 39.933594 393.820312 39.933594 399.332031 L 39.933594 479.199219 L 9.984375 479.199219 C 4.46875 479.199219 0 483.667969 0 489.183594 L 0 549.082031 C 0 554.597656 4.46875 559.066406 9.984375 559.066406 L 19.964844 559.066406 L 19.964844 589.015625 C 19.964844 594.53125 24.433594 599 29.949219 599 L 169.714844 599 C 175.230469 599 179.699219 594.53125 179.699219 589.015625 L 179.699219 559.066406 L 189.683594 559.066406 C 195.195312 559.066406 199.664062 554.597656 199.664062 549.082031 L 199.664062 489.183594 C 199.667969 483.671875 195.199219 479.199219 189.683594 479.199219 Z M 59.898438 539.101562 L 59.898438 529.117188 L 139.765625 529.117188 L 139.765625 539.101562 Z M 59.898438 409.316406 L 139.765625 409.316406 L 139.765625 509.152344 L 59.898438 509.152344 Z M 19.96875 499.167969 L 39.933594 499.167969 L 39.933594 539.101562 L 19.96875 539.101562 Z M 159.734375 579.035156 L 39.933594 579.035156 L 39.933594 559.066406 L 159.734375 559.066406 Z M 179.699219 539.101562 L 159.734375 539.101562 L 159.734375 499.167969 L 179.699219 499.167969 Z M 179.699219 539.101562 " style=" fill-rule:nonzero;fill-opacity:1;" stroke="#8952be" fill="#8952be"/>
<path d="M 589.015625 479.199219 L 559.066406 479.199219 L 559.066406 399.332031 C 559.066406 393.820312 554.597656 389.351562 549.085938 389.351562 L 449.25 389.351562 C 443.738281 389.351562 439.265625 393.820312 439.265625 399.332031 L 439.265625 479.199219 L 409.316406 479.199219 C 403.804688 479.199219 399.335938 483.667969 399.335938 489.183594 L 399.335938 549.082031 C 399.335938 554.597656 403.804688 559.066406 409.316406 559.066406 L 419.300781 559.066406 L 419.300781 589.015625 C 419.300781 594.53125 423.769531 599 429.285156 599 L 569.050781 599 C 574.5625 599 579.03125 594.53125 579.03125 589.015625 L 579.03125 559.066406 L 589.015625 559.066406 C 594.53125 559.066406 599 554.597656 599 549.082031 L 599 489.183594 C 599 483.671875 594.53125 479.199219 589.015625 479.199219 Z M 459.234375 539.101562 L 459.234375 529.117188 L 539.101562 529.117188 L 539.101562 539.101562 Z M 459.234375 409.316406 L 539.101562 409.316406 L 539.101562 509.152344 L 459.234375 509.152344 Z M 419.300781 499.167969 L 439.265625 499.167969 L 439.265625 539.101562 L 419.300781 539.101562 Z M 559.066406 579.035156 L 439.265625 579.035156 L 439.265625 559.066406 L 559.066406 559.066406 Z M 579.035156 539.101562 L 559.066406 539.101562 L 559.066406 499.167969 L 579.035156 499.167969 Z M 579.035156 539.101562 " style=" fill-rule:nonzero;fill-opacity:1;" stroke="#8952be" fill="#8952be"/>
</g>
</svg>
