<?xml version="1.0" encoding="iso-8859-1"?>
<!-- Generator: Adobe Illustrator 16.0.0, SVG Export Plug-In . SVG Version: 6.00 Build 0)  -->
<!DOCTYPE svg PUBLIC "-//W3C//DTD SVG 1.1//EN" "http://www.w3.org/Graphics/SVG/1.1/DTD/svg11.dtd">
<svg xmlns="http://www.w3.org/2000/svg" xmlns:xlink="http://www.w3.org/1999/xlink" version="1.1" id="Capa_1" x="0px" y="0px" width="512px" height="512px" viewBox="0 0 181.427 181.428" style="enable-background:new 0 0 181.427 181.428;" xml:space="preserve">
<g>
	<g>
		<g>
			<path d="M31.287,49.86c7.517,0,13.633-8.731,13.633-16.258c0-7.532-6.11-13.643-13.633-13.643     c-7.533,0-13.646,6.104-13.646,13.643C17.635,41.129,23.754,49.86,31.287,49.86z" fill="#FFFFFF"/>
			<path d="M57.979,59.363c-0.107-0.393-0.18-0.789-0.375-1.148c-0.137-0.274-0.35-0.487-0.523-0.725     c-0.244-0.322-0.46-0.643-0.773-0.904c-0.243-0.198-0.53-0.329-0.804-0.49c-0.28-0.158-0.505-0.383-0.816-0.493     c-0.493-0.177-11.344-4.067-21.318-4.579l-1.379,2.74h-0.03l3.629,28.281l-4.311,7.535l-4.314-7.535l3.629-28.281h-0.037     l-1.373-2.74c-9.974,0.512-20.825,4.402-21.318,4.579c-0.311,0.119-0.548,0.341-0.822,0.506c-0.268,0.155-0.554,0.28-0.786,0.478     c-0.326,0.268-0.548,0.594-0.797,0.917c-0.177,0.231-0.375,0.438-0.505,0.694c-0.195,0.372-0.274,0.767-0.387,1.172     c-0.064,0.234-0.195,0.441-0.226,0.697l-4.308,38.83c-0.332,2.959,1.803,5.62,4.765,5.955c0.198,0.024,0.398,0.037,0.603,0.037     c2.713,0,5.045-2.047,5.35-4.805l3.93-35.372c0.46-0.131,0.959-0.28,1.495-0.432v36.809l-4.29,53.378     c-0.286,3.556,2.369,6.673,5.931,6.959c0.173,0.019,0.35,0.024,0.523,0.024c3.337,0,6.166-2.563,6.439-5.948l3.885-48.238     c0.798,0.358,1.684,0.565,2.612,0.565c0.932,0,1.809-0.207,2.615-0.565l3.876,48.238c0.277,3.385,3.105,5.948,6.442,5.948     c0.173,0,0.35-0.006,0.523-0.024c3.559-0.286,6.217-3.403,5.931-6.959l-4.29-53.378V64.28c0.536,0.152,1.035,0.301,1.495,0.432     l3.928,35.372c0.313,2.758,2.646,4.805,5.353,4.805c0.198,0,0.398-0.013,0.603-0.037c2.962-0.335,5.094-2.996,4.771-5.955     l-4.314-38.83C58.18,59.816,58.04,59.604,57.979,59.363z" fill="#FFFFFF"/>
		</g>
		<g>
			<g>
				<path d="M162.642,31.633c4.512-3.023,7.624-9.021,7.624-14.41c0-7.611-6.175-13.779-13.78-13.779s-13.779,6.168-13.779,13.779      c0,5.383,3.111,11.381,7.623,14.41c-10.783,2.737-18.791,12.108-18.791,19.062c0,8.199,49.889,8.199,49.889,0      C181.427,43.747,173.432,34.376,162.642,31.633z M156.486,56.836l-6.99-6.976l5.882-14.23h-0.066l-2.277-2.612      c1.108,0.393,2.253,0.636,3.452,0.636c1.2,0,2.345-0.237,3.446-0.636l-2.283,2.612h-0.055l5.882,14.23L156.486,56.836z" fill="#FFFFFF"/>
				<path d="M162.642,92.198c4.512-3.021,7.624-9.018,7.624-14.407c0-7.611-6.175-13.78-13.78-13.78s-13.779,6.168-13.779,13.78      c0,5.383,3.111,11.38,7.623,14.407c-10.783,2.74-18.791,12.118-18.791,19.065c0,8.202,49.889,8.202,49.889,0      C181.427,104.316,173.432,94.945,162.642,92.198z M156.486,117.408l-6.99-6.979l5.882-14.23h-0.066l-2.277-2.612      c1.108,0.39,2.253,0.634,3.452,0.634c1.2,0,2.345-0.232,3.446-0.634l-2.283,2.612h-0.055l5.882,14.23L156.486,117.408z" fill="#FFFFFF"/>
				<path d="M162.642,152.773c4.512-3.026,7.624-9.024,7.624-14.407c0-7.617-6.175-13.786-13.78-13.786s-13.779,6.169-13.779,13.786      c0,5.377,3.111,11.375,7.623,14.407c-10.783,2.74-18.791,12.105-18.791,19.059c0,8.203,49.889,8.203,49.889,0      C181.427,164.891,173.432,155.514,162.642,152.773z M156.486,177.977l-6.99-6.979l5.882-14.23h-0.066l-2.277-2.611      c1.108,0.396,2.253,0.639,3.452,0.639c1.2,0,2.345-0.243,3.446-0.639l-2.283,2.611h-0.055l5.882,14.23L156.486,177.977z" fill="#FFFFFF"/>
			</g>
			<polygon points="127.891,33.024 127.891,27.236 85.465,27.236 85.465,87.839 66.838,87.839 66.838,93.605 85.465,93.605      85.465,154.211 127.891,154.211 127.891,148.42 91.238,148.42 91.238,93.611 127.891,93.611 127.891,87.839 91.238,87.839      91.238,33.024    " fill="#FFFFFF"/>
		</g>
	</g>
</g>
<g>
</g>
<g>
</g>
<g>
</g>
<g>
</g>
<g>
</g>
<g>
</g>
<g>
</g>
<g>
</g>
<g>
</g>
<g>
</g>
<g>
</g>
<g>
</g>
<g>
</g>
<g>
</g>
<g>
</g>
</svg>
